<?xml version="1.0" standalone="no"?>
<!DOCTYPE svg PUBLIC "-//W3C//DTD SVG 20010904//EN"
 "http://www.w3.org/TR/2001/REC-SVG-20010904/DTD/svg10.dtd">
<svg version="1.0" xmlns="http://www.w3.org/2000/svg"
 width="1300.000000pt" height="508.000000pt" viewBox="0 0 1300.000000 508.000000"
 preserveAspectRatio="xMidYMid meet">

<g transform="translate(0.000000,508.000000) scale(0.100000,-0.100000)"
fill="#000000" stroke="none">
<path d="M948 3729 c6 -7 12 -28 12 -47 0 -18 -94 -453 -210 -967 -115 -513
-210 -942 -210 -953 0 -10 9 -31 21 -46 l20 -26 334 0 335 0 -10 25 c-8 20 10
113 80 424 50 219 90 402 90 405 0 3 49 6 109 6 l108 0 -83 -372 c-46 -204
-84 -388 -84 -410 0 -25 7 -45 20 -58 19 -19 33 -20 357 -20 262 0 334 3 325
12 -7 7 -12 23 -12 36 0 29 216 998 230 1030 9 21 15 22 110 22 56 0 100 -4
100 -9 0 -6 -68 -310 -150 -677 -82 -366 -150 -681 -150 -699 0 -18 9 -43 19
-56 l19 -24 342 -3 c316 -3 341 -2 326 13 -9 9 -16 26 -16 38 0 23 308 1395
316 1409 3 4 68 8 145 8 166 0 189 8 213 72 9 24 40 128 70 231 43 149 51 187
38 180 -10 -4 -330 -10 -712 -13 -641 -5 -698 -6 -723 -22 -36 -24 -37 -27
-97 -238 -29 -102 -56 -189 -60 -193 -4 -4 12 96 36 224 54 289 54 289 209
299 l89 5 33 140 c47 204 44 236 -25 255 -22 6 -164 10 -349 10 l-312 0 16
-28 c15 -26 12 -43 -59 -357 l-74 -330 -107 -3 c-59 -1 -107 -1 -107 2 0 2 30
134 66 292 73 324 78 365 45 397 -21 22 -27 22 -359 25 -271 3 -335 1 -324 -9z"/>
<path d="M4997 2484 c-224 -54 -404 -242 -453 -475 -40 -188 28 -357 170 -419
130 -58 324 -47 467 24 208 105 338 314 339 543 0 217 -143 345 -385 342 -44
0 -106 -7 -138 -15z m199 -154 c89 -82 95 -285 15 -456 -96 -205 -325 -247
-405 -75 -17 37 -21 64 -20 136 2 182 85 342 209 402 68 33 161 29 201 -7z"/>
<path d="M6741 2484 c-136 -36 -268 -132 -347 -252 -21 -31 -51 -95 -68 -142
-39 -112 -42 -244 -7 -332 69 -178 287 -247 573 -182 73 17 66 10 138 138 28
50 30 58 14 52 -82 -34 -199 -68 -250 -73 -187 -17 -282 114 -240 331 30 155
108 273 208 316 72 31 173 26 247 -12 36 -19 53 -24 56 -15 8 27 27 159 22
163 -2 3 -31 9 -63 14 -84 14 -220 11 -283 -6z"/>
<path d="M12188 2484 c-266 -64 -459 -326 -446 -604 9 -181 109 -290 294 -320
110 -18 328 6 371 41 16 14 96 159 90 165 -2 2 -24 -5 -48 -15 -86 -38 -200
-64 -259 -58 -146 13 -208 97 -197 266 9 135 57 253 133 326 83 81 213 99 320
45 32 -16 60 -28 61 -26 7 6 27 166 22 171 -26 25 -249 32 -341 9z"/>
<path d="M3757 2438 c15 -42 13 -51 -66 -401 -78 -343 -94 -400 -129 -439 -14
-17 -7 -18 146 -18 l160 0 -15 32 c-16 30 -15 40 23 207 l39 176 118 3 c78 2
117 -1 117 -8 0 -25 -70 -322 -81 -342 -6 -13 -21 -33 -32 -45 l-20 -23 162 0
c157 0 161 1 151 19 -19 36 -10 94 64 426 81 360 86 374 122 422 l25 33 -165
0 -165 0 15 -27 c19 -38 18 -59 -14 -203 l-28 -125 -118 -3 -118 -3 6 43 c17
116 57 243 86 280 l31 38 -164 0 -165 0 15 -42z"/>
<path d="M5694 2459 c9 -13 16 -39 16 -57 0 -37 -144 -690 -162 -736 -6 -16
-22 -42 -36 -57 l-24 -29 160 0 159 0 -11 40 c-9 36 -2 77 62 368 41 180 76
335 78 345 4 13 12 16 32 11 72 -17 99 -96 67 -197 -19 -62 -59 -116 -118
-158 l-40 -29 35 0 c60 0 150 21 200 46 115 58 178 150 185 269 5 91 -19 137
-92 174 -48 25 -55 26 -288 29 l-239 4 16 -23z"/>
<path d="M7274 2458 c9 -12 16 -36 16 -53 0 -31 -140 -669 -161 -733 -6 -18
-22 -46 -36 -62 l-25 -30 124 0 124 0 208 285 c114 157 209 285 211 285 2 0 1
-8 -1 -17 -2 -10 -27 -119 -54 -243 -41 -186 -55 -232 -80 -267 l-30 -43 161
0 c155 0 159 1 149 19 -19 37 -10 97 65 430 78 345 92 390 127 428 l21 23
-125 0 -125 0 -209 -289 c-115 -159 -210 -288 -212 -286 -5 5 99 459 113 492
8 18 25 44 39 58 l25 25 -170 0 -170 0 15 -22z"/>
<path d="M8555 2384 c-25 -53 -45 -98 -45 -99 0 -1 21 8 47 21 35 18 63 24
115 24 47 0 68 -4 68 -12 0 -30 -144 -646 -157 -671 -8 -15 -23 -37 -34 -48
-19 -19 -18 -19 142 -19 143 0 160 2 155 16 -3 9 -9 26 -12 39 -4 17 116 592
142 678 4 14 17 17 73 17 44 0 74 -5 87 -15 10 -8 22 -15 25 -15 6 0 79 161
79 174 0 3 -144 6 -320 6 l-321 0 -44 -96z"/>
<path d="M9354 2459 c9 -13 16 -40 16 -59 0 -40 -143 -687 -162 -734 -6 -16
-22 -42 -36 -57 l-24 -29 160 0 159 0 -10 40 c-10 35 -2 78 62 367 40 180 77
335 82 344 12 24 54 12 84 -23 63 -75 9 -235 -108 -319 l-40 -29 41 0 c105 0
229 49 294 117 20 21 49 64 64 96 22 49 26 69 22 125 -4 83 -31 125 -97 156
-42 19 -68 21 -285 24 l-238 4 16 -23z"/>
<path d="M10236 2455 c14 -22 15 -32 6 -63 -7 -20 -97 -190 -202 -377 -138
-246 -204 -353 -238 -387 l-46 -48 128 0 c113 0 127 2 116 15 -21 25 -6 86 43
171 l45 79 131 3 c111 2 132 0 137 -13 4 -8 7 -56 8 -104 1 -86 0 -91 -28
-120 l-30 -31 188 0 187 0 -19 25 c-11 14 -25 47 -31 73 -9 38 -101 761 -101
793 0 5 -64 9 -155 9 l-155 0 16 -25z m93 -341 c7 -69 10 -128 8 -130 -3 -3
-43 -4 -90 -2 l-86 3 72 127 c40 71 75 128 78 128 3 0 11 -57 18 -126z"/>
<path d="M10954 2458 c9 -12 16 -39 16 -58 0 -40 -143 -687 -162 -734 -6 -16
-22 -42 -36 -57 l-24 -29 160 0 159 0 -10 40 c-9 33 -6 63 23 192 18 84 37
161 42 171 7 15 24 17 118 17 60 0 111 -3 113 -7 6 -11 -58 -293 -76 -334 -8
-19 -24 -44 -36 -56 l-22 -23 162 0 c149 0 161 1 154 18 -3 9 -9 28 -11 42 -5
26 149 727 167 764 6 11 23 33 37 49 l26 27 -166 0 -166 0 14 -39 c13 -40 13
-44 -36 -268 l-12 -53 -119 0 c-65 0 -119 2 -119 6 0 18 62 259 71 277 6 12
23 34 37 50 l26 27 -173 0 -172 0 15 -22z"/>
<path d="M8329 2083 c-125 -3 -180 -7 -187 -16 -5 -6 -14 -33 -20 -58 -7 -26
-14 -54 -18 -63 -6 -14 11 -16 172 -16 99 0 185 4 192 9 7 4 22 37 32 72 22
71 23 80 13 77 -5 -1 -87 -4 -184 -5z"/>
</g>
</svg>
